<svg width="1606" height="267" viewBox="0 0 1606 267" fill="none" xmlns="http://www.w3.org/2000/svg">
<path fill-rule="evenodd" clip-rule="evenodd" d="M594.521 33.4239V13C594.521 7.47715 590.044 3 584.521 3H554.646C549.123 3 544.646 7.47715 544.646 13V33.4239H479.833C474.31 33.4239 469.833 37.9011 469.833 43.4239V222.925C469.833 228.448 474.31 232.925 479.833 232.925H544.646V253.349C544.646 258.872 549.123 263.349 554.646 263.349H584.521C590.044 263.349 594.521 258.872 594.521 253.349V232.925L659.334 232.925C664.857 232.925 669.334 228.448 669.334 222.925V118.237C669.334 112.89 665.137 108.523 659.858 108.25V108.237H637.414L659.858 92.456V43.4239C659.858 37.9011 655.381 33.4239 649.858 33.4239H594.521ZM519.708 158.112V183.05H619.459V158.112H519.708ZM609.983 108.237H519.708V83.2992H609.983V108.237Z" stroke="black" stroke-width="6"/>
<path d="M192.501 33.4238C198.024 33.4238 202.501 37.901 202.501 43.4238V73.2991C202.501 78.822 198.024 83.2991 192.501 83.2991H127.688V222.925C127.688 228.448 123.211 232.925 117.688 232.925H87.813C82.2901 232.925 77.813 228.448 77.813 222.925V83.2991H13C7.47714 83.2991 3 78.822 3 73.2991V43.4238C3 37.901 7.47715 33.4238 13 33.4238H192.501Z" stroke="black" stroke-width="6"/>
<path fill-rule="evenodd" clip-rule="evenodd" d="M246.416 33.4238C240.893 33.4238 236.416 37.901 236.416 43.4238V222.925C236.416 228.448 240.893 232.925 246.416 232.925H276.291C281.814 232.925 286.291 228.448 286.291 222.925V183.05H386.042V222.925C386.042 228.448 390.519 232.925 396.042 232.925H425.917C431.44 232.925 435.917 228.448 435.917 222.925V43.4238C435.917 38.2811 432.035 34.0451 427.042 33.4863C426.673 33.445 426.297 33.4238 425.917 33.4238H246.416ZM386.042 133.174V83.2991H286.291V133.174H386.042Z" stroke="black" stroke-width="6"/>
<path d="M713.249 33.4238C707.726 33.4238 703.249 37.901 703.249 43.4238V222.925C703.249 228.448 707.726 232.925 713.249 232.925L892.75 232.925C898.273 232.925 902.75 228.448 902.75 222.925V159.633C902.75 154.11 898.273 149.633 892.75 149.633H862.875C857.352 149.633 852.875 154.11 852.875 159.633V183.05H753.124V83.2991H852.875V106.716C852.875 112.238 857.352 116.716 862.875 116.716H892.75C898.273 116.716 902.75 112.238 902.75 106.716V43.4238C902.75 38.2811 898.868 34.0451 893.875 33.4863C893.506 33.445 893.13 33.4238 892.75 33.4238H713.249Z" stroke="black" stroke-width="6"/>
<path fill-rule="evenodd" clip-rule="evenodd" d="M1126.17 33.4238C1126.55 33.4238 1126.92 33.445 1127.29 33.4863C1132.29 34.0451 1136.17 38.2811 1136.17 43.4238V222.925C1136.17 228.448 1131.69 232.925 1126.17 232.925H946.666C941.143 232.925 936.666 228.448 936.666 222.925V43.4238C936.666 37.901 941.143 33.4238 946.666 33.4238H1126.17ZM986.541 83.2991H1086.29V183.05H986.541V83.2991Z" stroke="black" stroke-width="6"/>
<path d="M1215.25 33.4238H1180.06C1174.55 33.4238 1170.08 37.8898 1170.08 43.3989V222.95C1170.08 228.459 1174.55 232.925 1180.06 232.925H1209.98C1215.49 232.925 1219.96 228.459 1219.96 222.95V111.859L1316.72 229.293C1318.61 231.593 1321.43 232.925 1324.41 232.925H1359.61C1365.12 232.925 1369.58 228.459 1369.58 222.95V43.3989C1369.58 37.8898 1365.12 33.4238 1359.61 33.4238H1329.68C1324.17 33.4238 1319.71 37.8898 1319.71 43.3989V154.492L1222.94 37.0557C1221.05 34.756 1218.23 33.4238 1215.25 33.4238Z" stroke="black" stroke-width="6"/>
<path d="M1403.5 43.4238C1403.5 37.901 1407.98 33.4238 1413.5 33.4238H1593C1598.52 33.4238 1603 37.901 1603 43.4238V73.2991C1603 78.822 1598.52 83.2991 1593 83.2991H1453.37V108.237H1593C1598.52 108.237 1603 112.714 1603 118.237V148.112C1603 153.635 1598.52 158.112 1593 158.112H1453.37V222.925C1453.37 228.448 1448.9 232.925 1443.37 232.925H1413.5C1407.98 232.925 1403.5 228.448 1403.5 222.925V43.4238Z" stroke="black" stroke-width="6"/>
</svg>
