<svg width="1600" height="262" viewBox="0 0 1600 262" fill="none" xmlns="http://www.w3.org/2000/svg">
<g clip-path="url(#clip0_103_214)">
<path fill-rule="evenodd" clip-rule="evenodd" d="M104.688 31.4238H179.501C190.547 31.4238 199.501 40.3781 199.501 51.4238V61.2992C199.501 72.3449 190.547 81.2991 179.501 81.2991H124.688V210.925C124.688 221.971 115.734 230.925 104.688 230.925H94.8129C83.7673 230.925 74.813 221.971 74.813 210.925V81.2991H20C8.95428 81.2991 0 72.3448 0 61.2991V51.4238C0 40.3781 8.9543 31.4238 20 31.4238H94.813H104.688Z" fill="black"/>
<path fill-rule="evenodd" clip-rule="evenodd" d="M403.042 31.4238H263.292H253.416C252.726 31.4238 252.044 31.4588 251.372 31.5271C241.286 32.5513 233.416 41.0685 233.416 51.4238V61.2991V151.174V161.05V210.925C233.416 221.971 242.371 230.925 253.416 230.925H263.292C274.337 230.925 283.292 221.971 283.292 210.925V181.05H383.042V210.925C383.042 221.971 391.997 230.925 403.042 230.925H412.918C423.963 230.925 432.918 221.971 432.918 210.925V161.05V151.174V61.2992V51.4238C432.918 40.9143 424.812 32.298 414.511 31.4863C413.985 31.4449 413.454 31.4238 412.918 31.4238H403.042ZM383.042 131.174V81.2991H283.292V131.174H383.042Z" fill="black"/>
<path fill-rule="evenodd" clip-rule="evenodd" d="M543.55 31.4239C542.329 28.837 541.646 25.9459 541.646 22.8953V21C541.646 9.95431 550.6 1 561.646 1H571.521C582.567 1 591.521 9.95431 591.521 21V22.8953C591.521 25.9459 590.838 28.837 589.617 31.4239H626.983H628.878H636.858C647.904 31.4239 656.858 40.3782 656.858 51.4239V90.456L634.414 106.237H656.858V109.226C662.546 112.753 666.334 119.052 666.334 126.237V136.112V201.05V210.925C666.334 221.971 657.38 230.925 646.334 230.925H636.459L636.434 230.925H591.361C591.467 231.758 591.521 232.607 591.521 233.469V241.349C591.521 252.395 582.567 261.349 571.521 261.349H561.646C550.6 261.349 541.646 252.395 541.646 241.349V233.469C541.646 232.607 541.7 231.758 541.806 230.925H496.708H486.833C475.787 230.925 466.833 221.971 466.833 210.925V201.05V136.112V126.237V61.2992V51.4239C466.833 40.3782 475.787 31.4239 486.833 31.4239H496.708H543.55ZM516.708 181.05V156.112H616.459V181.05H516.708ZM516.708 106.237H606.983V81.2992H516.708V106.237Z" fill="black"/>
<path fill-rule="evenodd" clip-rule="evenodd" d="M720.249 31.4238C709.204 31.4238 700.249 40.3781 700.249 51.4238V61.2991V201.05V210.925C700.249 221.971 709.204 230.925 720.249 230.925H730.125H869.85C869.859 230.925 869.867 230.925 869.875 230.925H879.751C879.794 230.925 879.837 230.925 879.88 230.925C890.866 230.855 899.751 221.928 899.751 210.925L899.751 201.05C899.751 201.038 899.751 201.026 899.751 201.014V167.633C899.751 156.588 890.796 147.633 879.751 147.633H869.875C858.83 147.633 849.875 156.588 849.875 167.633V181.05H750.125V81.2991H849.875V94.7156C849.875 105.761 858.83 114.716 869.875 114.716H879.751C890.796 114.716 899.751 105.761 899.751 94.7156V61.3345L899.751 61.2992L899.751 51.4238C899.751 41.4573 892.46 33.1934 882.922 31.6738C881.889 31.5093 880.83 31.4238 879.751 31.4238H869.875H730.125H720.249Z" fill="black"/>
<path fill-rule="evenodd" clip-rule="evenodd" d="M1103.29 31.4238H963.541H953.666C952.975 31.4238 952.293 31.4588 951.621 31.5271C941.536 32.5513 933.666 41.0685 933.666 51.4238V61.2991V201.05V210.925C933.666 221.971 942.62 230.925 953.666 230.925H963.541H1103.29H1113.17C1113.86 230.925 1114.54 230.89 1115.21 230.822C1125.3 229.798 1133.17 221.28 1133.17 210.925L1133.17 201.05C1133.17 201.038 1133.17 201.026 1133.17 201.014V61.3345L1133.17 61.2992L1133.17 51.4238C1133.17 41.4573 1125.88 33.1934 1116.34 31.6738C1115.31 31.5093 1114.25 31.4238 1113.17 31.4238H1103.29ZM1083.29 181.05V81.2991H983.541V181.05H1083.29Z" fill="black"/>
<path d="M1212.25 31.4238H1177.06C1171.55 31.4238 1167.08 35.8898 1167.08 41.3989V220.95C1167.08 226.459 1171.55 230.925 1177.06 230.925H1206.98C1212.49 230.925 1216.96 226.459 1216.96 220.95V109.859L1313.72 227.293C1315.61 229.593 1318.43 230.925 1321.41 230.925H1356.61C1362.12 230.925 1366.58 226.459 1366.58 220.95V41.3989C1366.58 35.8898 1362.12 31.4238 1356.61 31.4238H1326.68C1321.17 31.4238 1316.71 35.8898 1316.71 41.3989V152.492L1219.94 35.0557C1218.05 32.756 1215.23 31.4238 1212.25 31.4238Z" fill="black"/>
<path fill-rule="evenodd" clip-rule="evenodd" d="M1420.5 31.4238C1409.45 31.4238 1400.5 40.3781 1400.5 51.4238V61.2991V126.237V136.112V210.925C1400.5 221.971 1409.45 230.925 1420.5 230.925H1430.37C1441.42 230.925 1450.37 221.971 1450.37 210.925V156.112H1580C1591.05 156.112 1600 147.158 1600 136.112V126.237C1600 115.191 1591.05 106.237 1580 106.237H1450.37V81.2991H1580C1591.05 81.2991 1600 72.3449 1600 61.2992V51.4238C1600 40.3781 1591.05 31.4238 1580 31.4238H1430.37H1420.5Z" fill="black"/>
</g>
<defs>
<clipPath id="clip0_103_214">
<rect width="1600" height="262" fill="white"/>
</clipPath>
</defs>
</svg>
